<?xml version="1.0" encoding="utf-8"?>
<svg version="1.1" xmlns:xlink="http://www.w3.org/1999/xlink" width="253px" height="50px" xmlns="http://www.w3.org/2000/svg">
  <g transform="matrix(1 0 0 1 -1246 -182 )">
    <path d="M 1479.31059161579 182.5  C 1479.31059161579 182.5  1482.75187320195 182.840047587565  1482.75187320195 182.840047587565  C 1482.75187320195 182.840047587565  1498.46263422453 207  1498.46263422453 207  C 1498.46263422453 207  1482.75187320195 231.159952412435  1482.75187320195 231.159952412435  C 1482.75187320195 231.159952412435  1479.31059161579 231.5  1479.31059161579 231.5  C 1479.31059161579 231.5  1251 231.5  1251 231.5  C 1248.48 231.5  1246.5 229.52  1246.5 227  C 1246.5 227  1246.5 187  1246.5 187  C 1246.5 184.48  1248.48 182.5  1251 182.5  C 1251 182.5  1479.31059161579 182.5  1479.31059161579 182.5  Z " fill-rule="nonzero" fill="#f2f2f2" stroke="none" />
    <path d="M 1479.31059161579 182.5  C 1479.31059161579 182.5  1482.75187320195 182.840047587565  1482.75187320195 182.840047587565  C 1482.75187320195 182.840047587565  1498.46263422453 207  1498.46263422453 207  C 1498.46263422453 207  1482.75187320195 231.159952412435  1482.75187320195 231.159952412435  C 1482.75187320195 231.159952412435  1479.31059161579 231.5  1479.31059161579 231.5  C 1479.31059161579 231.5  1251 231.5  1251 231.5  C 1248.48 231.5  1246.5 229.52  1246.5 227  C 1246.5 227  1246.5 187  1246.5 187  C 1246.5 184.48  1248.48 182.5  1251 182.5  C 1251 182.5  1479.31059161579 182.5  1479.31059161579 182.5  Z " stroke-width="1" stroke="#002060" fill="none" />
  </g>
</svg>