<?xml version="1.0" encoding="utf-8"?>
<svg version="1.1" xmlns:xlink="http://www.w3.org/1999/xlink" width="253px" height="50px" xmlns="http://www.w3.org/2000/svg">
  <g transform="matrix(1 0 0 1 -815 -182 )">
    <path d="M 1048.93177484737 183.5  C 1048.93177484737 183.5  1051.25561960585 183.729628928703  1051.25561960585 183.729628928703  C 1051.25561960585 183.729628928703  1066.38790267358 207  1066.38790267358 207  C 1066.38790267358 207  1051.25561960585 230.270371071297  1051.25561960585 230.270371071297  C 1051.25561960585 230.270371071297  1048.93177484737 230.5  1048.93177484737 230.5  C 1048.93177484737 230.5  820 230.5  820 230.5  C 818.04 230.5  816.5 228.96  816.5 227  C 816.5 227  816.5 187  816.5 187  C 816.5 185.04  818.04 183.5  820 183.5  C 820 183.5  1048.93177484737 183.5  1048.93177484737 183.5  Z " fill-rule="nonzero" fill="#0079fe" stroke="none" />
    <path d="M 1048.62118323158 183  C 1048.62118323158 183  1051.5037464039 183.284838258134  1051.5037464039 183.284838258134  C 1051.5037464039 183.284838258134  1066.92526844905 207  1066.92526844905 207  C 1066.92526844905 207  1051.5037464039 230.715161741866  1051.5037464039 230.715161741866  C 1051.5037464039 230.715161741866  1048.62118323158 231  1048.62118323158 231  C 1048.62118323158 231  820 231  820 231  C 817.76 231  816 229.24  816 227  C 816 227  816 187  816 187  C 816 184.76  817.76 183  820 183  C 820 183  1048.62118323158 183  1048.62118323158 183  Z " stroke-width="2" stroke="#002060" fill="none" />
  </g>
</svg>