<?xml version="1.0" encoding="utf-8"?>
<svg version="1.1" xmlns:xlink="http://www.w3.org/1999/xlink" width="27px" height="23px" xmlns="http://www.w3.org/2000/svg">
  <g transform="matrix(1 0 0 1 -723 -23 )">
    <path d="M 26.3636363636364 17.1919191919192  C 26.7878787878788 17.5533108866442  27 17.9921436588103  27 18.5084175084175  C 27 19.0246913580247  26.7878787878788 19.4635241301908  26.3636363636364 19.8249158249158  L 23.2727272727273 22.4579124579125  C 22.8484848484849 22.8193041526375  22.3333333333333 23  21.7272727272727 23  C 21.1212121212121 23  20.6060606060606 22.8193041526375  20.1818181818182 22.4579124579125  L 13.5 16.7659932659933  L 6.81818181818182 22.4579124579125  C 6.39393939393939 22.8193041526375  5.87878787878788 23  5.27272727272727 23  C 4.66666666666667 23  4.15151515151515 22.8193041526375  3.72727272727273 22.4579124579125  L 0.636363636363636 19.8249158249158  C 0.212121212121212 19.4635241301908  0 19.0246913580247  0 18.5084175084175  C 0 17.9921436588103  0.212121212121212 17.5533108866442  0.636363636363636 17.1919191919192  L 7.31818181818182 11.5  L 0.636363636363636 5.80808080808081  C 0.212121212121212 5.44668911335578  0 5.00785634118968  0 4.49158249158249  C 0 3.97530864197531  0.212121212121212 3.5364758698092  0.636363636363636 3.17508417508418  L 3.72727272727273 0.542087542087542  C 4.15151515151515 0.180695847362513  4.66666666666667 0  5.27272727272727 0  C 5.87878787878788 0  6.39393939393939 0.180695847362513  6.81818181818182 0.542087542087542  L 13.5 6.23400673400674  L 20.1818181818182 0.542087542087542  C 20.6060606060606 0.180695847362513  21.1212121212121 0  21.7272727272727 0  C 22.3333333333333 0  22.8484848484849 0.180695847362513  23.2727272727273 0.542087542087542  L 26.3636363636364 3.17508417508418  C 26.7878787878788 3.5364758698092  27 3.97530864197531  27 4.49158249158249  C 27 5.00785634118968  26.7878787878788 5.44668911335578  26.3636363636364 5.80808080808081  L 19.6818181818182 11.5  L 26.3636363636364 17.1919191919192  Z " fill-rule="nonzero" fill="#f2f2f2" stroke="none" transform="matrix(1 0 0 1 723 23 )" />
  </g>
</svg>